<?xml version="1.0" standalone="no"?>
<!DOCTYPE svg PUBLIC "-//W3C//DTD SVG 1.1//EN" "https://www.w3.org/Graphics/SVG/1.1/DTD/svg11.dtd" >
<svg xmlns="https://www.w3.org/2000/svg">
<metadata>Generated by IcoMoon</metadata>
<defs>
<font id="icomoon" horiz-adv-x="1024">
<font-face units-per-em="1024" ascent="960" descent="-64" />
<missing-glyph horiz-adv-x="1024" />
<glyph unicode="&#x20;" d="" horiz-adv-x="512" />
<glyph unicode="&#xe000;" d="M482 958.8c-55.2-8-88.6-20-129-46.6-65.4-43.2-114.6-127.8-122.6-211-1.8-19-1.6-53.2 0.4-71.2 8.2-73.8 34.4-133.6 118.8-272 45.6-74.6 160.8-254 163.2-254 1.2 0 62.8 94.2 99.6 152.2 26 41.2 28 44.2 57.8 92.8 13.4 22 26.4 43.2 28.8 47 10.8 16.8 36.6 63.6 51.8 94 20.8 41.8 35 81.8 40 114 0.6 3.8 1.6 9.2 2.2 12 3.6 17.4 4.6 55.2 2.4 82.2-6.4 77-50.2 159.2-108.8 204.4-34.8 26.6-78.2 45.4-123.6 53.4-13.2 2.4-70.2 4.2-81 2.8zM543.6 799c21-5 44-18.2 60-34.8 37.8-39.6 46.2-97 21.4-146.2-5-9.8-20.2-29.8-28-36.6-14.2-12.6-39.6-25.6-55.4-28.4-3.4-0.6-7-1.6-7.8-2.2-2-1.2-32.8-1.2-40.8 0-21.6 3.4-48.2 16.4-65.6 32.2-45.6 41.6-54 113.4-19.2 164.4 20.6 30.2 52.6 49.8 87.8 54 5 0.6 9.2 1.2 9.6 1.6 1.4 1.2 26.2-1.4 38-4zM748 308.4c-4.8-5.8-30.8-35.2-33.4-38-1.4-1.4-2.6-3.2-2.6-4 0-0.8 10.2-4.8 22.6-9.2 60.2-20.6 106-52.6 121.8-84.8 5.8-11.8 6.6-15.2 6.4-29.4 0-12.6-1-18-4.8-25.6-15-31-57.4-57.8-121-76.2-23.6-7-55.6-13.8-74.4-16.2-2.4-0.4-6.8-1.2-10-1.8-3-0.6-11-1.6-17.6-2.2-6.6-0.8-14.2-1.6-17-2.2-32.4-5.2-154.8-5.2-200 0.2-19.6 2.4-43.4 5.6-47 6.2-2.2 0.4-9.4 1.8-16 3-53.6 9.6-107.6 28.6-137.8 48.8-44.2 29.2-55.4 67.4-31 105.2 15.2 23.8 53.6 50.6 97.2 68 8.6 3.4 16 6.4 16.2 6.8 1.6 1.6-36.6 51-39.2 51-4.2 0-48.6-19-66-28.4-28.8-15.4-48.2-29.4-68.6-49.6-40.8-40.6-52.2-87.8-31.6-131.8 26.6-57.6 97-103.8 206-135 6.2-1.8 13-3.6 15-4 2.2-0.4 7.4-1.8 11.8-3 4.4-1 11.2-2.6 15-3.2 3.8-0.6 8.4-1.6 10-2 1.6-0.4 6.2-1.4 10-2 3.8-0.6 9.2-1.4 12-2 2.8-0.6 8.2-1.4 12-1.8 3.8-0.4 11.6-1.4 17-2.2 37.4-5 54.4-5.8 107-6 57 0 85.2 1.6 123 7.2 7.8 1.2 16.8 2.6 20 3 27.8 4.2 111 25.4 120.8 31 1.8 1 10.4 4.6 19.2 8 61.6 23.6 116.2 66.4 136.6 106.8 11.4 22.8 15 51.6 9.4 73.2-14.2 54-69 101.2-158.2 136.6-23.2 9.2-29 10.2-32.8 5.6z" />
<glyph unicode="&#xe001;" d="M657.856 484.572q0 105.714-75.142 180.858t-180.858 75.142-180.858-75.142-75.142-180.858 75.142-180.858 180.858-75.142 180.858 75.142 75.142 180.858zM950.428 9.142q0-29.714-21.714-51.428t-51.428-21.714q-30.858 0-51.428 21.714l-196 195.428q-102.286-70.858-228-70.858-81.714 0-156.286 31.714t-128.572 85.714-85.714 128.572-31.714 156.286 31.714 156.286 85.714 128.572 128.572 85.714 156.286 31.714 156.286-31.714 128.572-85.714 85.714-128.572 31.714-156.286q0-125.714-70.858-228l196-196q21.142-21.142 21.142-51.428z" horiz-adv-x="950" />
<glyph unicode="&#xe002;" d="M634.828 272.998c13.722-13.876 13.722-36.3 0-50.124-13.722-13.876-35.892-13.876-49.612 0l-196.096 200.038c-13.722 13.876-13.722 36.3 0 50.124l196.096 200.090c13.722 13.876 35.892 13.876 49.612 0s13.722-36.25 0-50.124l-160.768-175.002 160.768-175.002z" />
<glyph unicode="&#xe003;" d="M389.172 272.998c-13.722-13.876-13.722-36.3 0-50.124 13.67-13.876 35.892-13.876 49.612 0l196.096 200.038c13.722 13.876 13.722 36.3 0 50.124l-196.096 200.090c-13.722 13.876-35.892 13.876-49.612 0s-13.722-36.25-0.052-50.074l160.82-175.052-160.768-175.002z" />
<glyph unicode="&#xe004;" d="M336.948 325.172c-13.876-13.722-36.25-13.722-50.124 0-13.824 13.722-13.876 35.892 0 49.664l200.088 195.992c13.876 13.722 36.3 13.722 50.124 0l200.090-196.044c13.876-13.772 13.876-35.942 0-49.664s-36.25-13.722-50.124 0l-175.054 160.82-175-160.768z" />
<glyph unicode="&#xe005;" d="M687.002 570.828c13.876 13.722 36.3 13.722 50.124 0 13.876-13.722 13.876-35.892 0-49.612l-200.038-196.096c-13.876-13.722-36.3-13.722-50.124 0l-200.090 196.096c-13.824 13.722-13.824 35.892 0 49.612 13.876 13.722 36.25 13.722 50.124 0l175.002-160.768 175.002 160.768z" />
<glyph unicode="&#xe006;" d="M737.228 68.198c13.722-13.876 13.722-36.25 0-50.124s-35.892-13.876-49.612 0l-400.896 404.838c-13.722 13.876-13.722 36.3 0 50.124l400.896 404.89c13.722 13.876 35.892 13.876 49.612 0s13.722-36.25 0-50.124l-365.568-379.802 365.568-379.802z" />
<glyph unicode="&#xe008;" d="M891.802 222.772c13.876-13.722 36.3-13.722 50.124 0 13.876 13.722 13.876 35.892 0 49.612l-404.89 400.896c-13.824 13.722-36.25 13.722-50.074 0l-404.89-400.896c-13.824-13.722-13.876-35.892 0-49.612s36.25-13.722 50.124 0l379.802 365.62 379.804-365.62z" />
<glyph unicode="&#xe009;" d="M132.198 673.228c-13.876 13.722-36.3 13.722-50.124 0-13.824-13.67-13.824-35.892 0-49.612l404.89-400.896c13.876-13.722 36.25-13.722 50.124 0l404.89 400.896c13.824 13.722 13.876 35.892 0 49.612s-36.352 13.722-50.126 0.052l-379.852-365.62-379.802 365.568z" />
<glyph unicode="&#xe00a;" d="M1005.248 941.248c-24.992 24.992-65.888 24.992-90.88 0l-130.24-130.368c-53.376 35.488-114.624 53.12-176.128 53.12-81.888 0-163.744-31.264-226.24-93.76l-192-192c-109.504-109.376-123.008-278.496-40.736-402.624l-130.24-130.368c-24.992-24.992-24.992-65.504 0-90.496 12.48-12.512 28.832-18.752 45.216-18.752s32.736 6.24 45.248 18.752l130.24 130.368c53.376-35.488 115.008-53.12 176.512-53.12 81.888 0 163.744 31.264 226.24 93.76l191.616 192c109.504 109.376 123.008 278.496 40.736 402.624l130.624 130.368c25.024 24.992 25.024 65.504 0.032 90.496zM799.616 544c0-51.264-20-99.488-56.256-135.744l-191.616-192c-36.256-36.256-84.48-56.256-135.744-56.256-28.992 0-56.736 7.136-82.24 19.264l95.488 95.488c24.992 24.992 24.992 65.504 0 90.496s-65.504 24.992-90.496 0l-95.488-95.488c-12.256 25.376-19.264 53.12-19.264 82.24 0 51.264 20 99.488 56.256 135.744l192 192c36.256 36.256 84.48 56.256 135.744 56.256 28.992 0 56.64-7.136 82.112-19.264l-97.376-97.504c-24.992-24.992-24.992-65.504 0-90.496 12.512-12.512 28.864-18.752 45.248-18.752 16.256 0 32.64 6.24 45.12 18.752l97.248 97.504c12.288-25.376 19.264-53.12 19.264-82.24z" />
<glyph unicode="&#xe00b;" d="M925.286 726.858q-38.286-56-92.572-95.428 0.572-8 0.572-24 0-74.286-21.714-148.286t-66-142-105.428-120.286-147.428-83.428-184.572-31.142q-154.858 0-283.428 82.858 20-2.286 44.572-2.286 128.572 0 229.142 78.858-60 1.142-107.428 36.858t-65.142 91.142q18.858-2.858 34.858-2.858 24.572 0 48.572 6.286-64 13.142-106 63.714t-42 117.428v2.286q38.858-21.714 83.428-23.428-37.714 25.142-60 65.714t-22.286 88q0 50.286 25.142 93.142 69.142-85.142 168.286-136.286t212.286-56.858q-4.572 21.714-4.572 42.286 0 76.572 54 130.572t130.572 54q80 0 134.858-58.286 62.286 12 117.142 44.572-21.142-65.714-81.142-101.714 53.142 5.714 106.286 28.572z" horiz-adv-x="950" />
<glyph unicode="&#xe00c;" d="M768 748.596h-146.228c-17.306 0-36.608-22.732-36.608-53.196v-105.576h182.836v-150.528h-182.836v-452.096h-172.646v452.044h-156.518v150.58h156.518v88.576c0 127.028 88.166 230.4 209.204 230.4h146.278v-160.204z" />
<glyph unicode="&#xe00d;" d="M101.888 673.844c0-76.442 25.548-131.686 75.878-164.096 41.216-26.572 89.088-30.566 113.972-30.566 6.042 0 10.854 0.256 14.234 0.46 0 0-7.884-51.354 30.208-102.196l-1.74 0.052c-65.996 0-281.292-13.824-281.292-190.822 0-180.070 197.734-189.184 237.364-189.184 3.124 0 4.916 0.052 4.916 0.052 0.46 0 3.276-0.102 8.090-0.102 25.446 0 91.238 3.174 152.372 32.922 79.258 38.452 119.5 105.42 119.5 198.912 0 90.368-61.236 144.128-105.984 183.45-27.29 23.962-50.892 44.646-50.892 64.768 0 20.48 17.204 35.892 39.014 55.398 35.226 31.54 68.506 76.442 68.506 161.332 0 74.65-9.676 124.724-69.324 156.468 6.246 3.174 28.212 5.478 39.116 7.014 32.308 4.404 79.564 9.42 79.564 35.788l-0.004 5.066h-235.418c-2.356-0.052-238.080-8.806-238.080-224.716zM481.946 212.378c4.506-71.988-57.088-125.132-149.556-131.84-93.9-6.912-171.264 35.38-175.77 107.366-2.15 34.56 13.004 68.404 42.752 95.386 30.208 27.29 71.578 44.134 116.684 47.514 5.324 0.308 10.598 0.564 15.872 0.564 86.888-0.002 145.768-51.1 150.018-118.99zM420.454 723.148c23.092-81.254-11.776-166.196-67.328-181.862-6.4-1.792-13.004-2.714-19.66-2.714-50.944 0-101.376 51.508-120.064 122.47-10.446 39.886-9.626 74.702 2.354 108.238 11.776 32.922 32.922 55.244 59.546 62.72 6.4 1.844 13.056 2.714 19.712 2.714 61.44 0 100.966-25.498 125.44-111.566zM817.204 546.202v153.6h-97.28v-153.6h-153.6v-97.28h153.6v-153.6h97.28v153.6h153.6v97.28h-153.6z" />
<glyph unicode="&#xe00e;" d="M259.892 803.84c0-54.426-40.192-98.508-106.292-98.508-62.208 0-102.4 44.084-102.4 98.508 0 55.706 41.524 98.508 105.012 98.508s102.4-42.802 103.68-98.508zM56.422-6.348v633.856h197.018v-633.856h-197.018zM371.354 425.318c0 79.052-2.612 145.152-5.222 202.188h171.11l9.114-88.166h3.892c25.908 41.524 89.446 102.4 195.738 102.4 129.588 0 226.816-86.836 226.816-273.51v-374.63h-197.018v351.284c0 81.664-28.57 137.42-99.84 137.42-54.426 0-86.784-37.58-101.068-73.882-5.222-12.954-6.502-31.078-6.502-49.254v-365.568h-197.020v431.718z" />
<glyph unicode="&#xe00f;" d="M441.14 282.726c-26.88-140.954-59.7-276.122-156.98-346.726-30.004 213.094 44.084 373.094 78.49 542.976-58.676 98.816 7.066 297.574 130.868 248.576 152.32-60.262-131.892-367.258 58.88-405.606 199.22-40.038 280.524 345.6 157.030 470.988-178.484 181.146-519.578 4.198-477.594-255.026 10.188-63.386 75.674-82.636 26.164-170.086-114.228 25.292-148.326 115.404-143.924 235.52 7.066 196.556 176.64 334.182 346.726 353.228 215.142 24.116 417.024-78.95 444.826-281.292 31.386-228.352-97.024-475.7-327.116-457.882-62.312 4.76-88.474 35.634-137.37 65.33z" />
<glyph unicode="&#xe010;" d="M489.728 580.044c-69.53 123.648-143.872 224.41-149.35 231.784-112.18-52.992-195.942-156.314-222.004-280.884 10.548-0.204 178.176-2.202 371.354 49.1zM539.852 444.928c5.324 1.69 10.548 3.226 15.924 4.762-10.086 22.886-21.146 45.772-32.666 68.352-207.156-61.952-405.964-57.498-413.030-57.292-0.154-4.25-0.308-8.45-0.308-12.75 0-103.476 39.116-197.684 103.22-268.954-0.102 0.102-0.308 0.358-0.308 0.358s110.132 195.278 327.168 265.524zM264.756 130.918l0.102 0.154c-3.020 2.356-6.196 4.454-9.114 6.912 5.324-4.3 9.012-7.066 9.012-7.066zM415.642 838.554c-0.358-0.102-0.718-0.154-1.024-0.256 0.562 0.154 0.972 0.204 1.024 0.256v0zM777.676 749.876c-70.86 62.412-163.788 100.352-265.626 100.352-32.716 0-64.41-3.994-94.822-11.366 6.092-8.090 81.612-108.442 150.426-234.65 151.654 56.882 208.998 144.024 210.022 145.664zM512.052-23.040c-260.2 0-471.092 210.892-471.092 471.040s210.892 471.040 471.092 471.040c260.148 0 470.988-210.892 470.988-471.040s-210.842-471.040-470.988-471.040zM580.454 382.208c-236.084-82.278-314.060-247.756-315.596-251.136 68.198-53.3 153.908-85.3 247.194-85.3 55.706 0 108.748 11.316 156.98 31.796-5.94 35.276-29.338 158.516-85.914 305.562-0.872-0.358-1.794-0.614-2.664-0.922zM598.528 544.308c9.42-19.2 18.38-38.656 26.726-58.368 3.020-6.964 5.836-13.876 8.704-20.788 138.956 17.46 275.712-12.186 280.166-13.158-0.922 95.436-35.020 182.988-91.444 251.494-0.818-1.178-65.33-94.362-224.152-159.18zM658.484 401.664c52.838-145.152 74.24-263.27 78.284-287.334 90.368 60.98 154.522 157.696 172.39 269.876-7.936 2.61-120.626 38.296-250.674 17.458z" />
<glyph unicode="&#xe011;" d="M804.144 428.572v-181.714q0-68-48.286-116.286t-116.286-48.286h-475.428q-68 0-116.286 48.286t-48.286 116.286v475.428q0 68 48.286 116.286t116.286 48.286h475.428q36 0 66.858-14.286 8.572-4 10.286-13.142 1.714-9.714-5.142-16.572l-28-28q-5.714-5.714-13.142-5.714-1.714 0-5.142 1.142-13.142 3.428-25.714 3.428h-475.428q-37.714 0-64.572-26.858t-26.858-64.572v-475.428q0-37.714 26.858-64.572t64.572-26.858h475.428q37.714 0 64.572 26.858t26.858 64.572v145.142q0 7.428 5.142 12.572l36.572 36.572q5.714 5.714 13.142 5.714 3.428 0 6.858-1.714 11.428-4.572 11.428-16.572zM936.144 708l-465.142-465.142q-13.714-13.714-32.572-13.714t-32.572 13.714l-245.714 245.714q-13.714 13.714-13.714 32.572t13.714 32.572l62.858 62.858q13.714 13.714 32.572 13.714t32.572-13.714l150.286-150.286 369.714 369.714q13.714 13.714 32.572 13.714t32.572-13.714l62.858-62.858q13.714-13.714 13.714-32.572t-13.714-32.572z" horiz-adv-x="950" />
<glyph unicode="&#xe012;" d="M954.858 636.572q0-22.858-16-38.858l-491.428-491.428q-16-16-38.858-16t-38.858 16l-284.572 284.572q-16 16-16 38.858t16 38.858l77.714 77.714q16 16 38.858 16t38.858-16l168-168.572 374.858 375.428q16 16 38.858 16t38.858-16l77.714-77.714q16-16 16-38.858z" />
<glyph unicode="&#xe013;" d="M128 704v-640h896v640h-896zM960 170.666l-128 213.334-145.066-120.888-110.934 184.888-384-320v512h768v-469.334zM256 480c0-53.019 42.981-96 96-96s96 42.981 96 96c0 53.019-42.981 96-96 96-53.019 0-96-42.981-96-96zM896 832h-896v-640h64v576h832z" />
<glyph unicode="&#xe014;" d="M511.142 649.142v-256q0-8-5.142-13.142t-13.142-5.142h-182.858q-8 0-13.142 5.142t-5.142 13.142v36.572q0 8 5.142 13.142t13.142 5.142h128v201.142q0 8 5.142 13.142t13.142 5.142h36.572q8 0 13.142-5.142t5.142-13.142zM748.856 448q0 84.572-41.714 156t-113.142 113.142-156 41.714-156-41.714-113.142-113.142-41.714-156 41.714-156 113.142-113.142 156-41.714 156 41.714 113.142 113.142 41.714 156zM876.856 448q0-119.428-58.858-220.286t-159.714-159.714-220.286-58.858-220.286 58.858-159.714 159.714-58.858 220.286 58.858 220.286 159.714 159.714 220.286 58.858 220.286-58.858 159.714-159.714 58.858-220.286z" horiz-adv-x="876" />
<glyph unicode="&#xe015;" d="M320 576h128v-128h-128zM512 576h128v-128h-128zM704 576h128v-128h-128zM128 192h128v-128h-128zM320 192h128v-128h-128zM512 192h128v-128h-128zM320 384h128v-128h-128zM512 384h128v-128h-128zM704 384h128v-128h-128zM128 384h128v-128h-128zM832 960v-64h-128v64h-448v-64h-128v64h-128v-1024h960v1024h-128zM896 0h-832v704h832v-704z" />
<glyph unicode="&#xe016;" d="M512 9.142q-14.858 0-25.142 10.286l-356.572 344q-5.714 4.572-15.714 14.858t-31.714 37.428-38.858 55.714-30.572 69.142-13.428 78.858q0 125.714 72.572 196.572t200.572 70.858q35.428 0 72.286-12.286t68.572-33.142 54.572-39.142 43.428-38.858q20.572 20.572 43.428 38.858t54.572 39.142 68.572 33.142 72.286 12.286q128 0 200.572-70.858t72.572-196.572q0-126.286-130.858-257.142l-356-342.858q-10.286-10.286-25.142-10.286z" />
<glyph unicode="&#xe017;" d="M804.572 521.142q0-79.428-53.714-146.858t-146.572-106.572-202-39.142q-49.142 0-100.572 9.142-70.858-50.286-158.858-73.142-20.572-5.142-49.142-9.142h-1.714q-6.286 0-11.714 4.572t-6.572 12q-0.572 1.714-0.572 3.714t0.286 3.714 1.142 3.428l1.428 2.858t2 3.142 2.286 2.858 2.572 2.858 2.286 2.572q2.858 3.428 13.142 14.286t14.858 16.858 12.858 16.572 14.286 22 11.714 25.142q-70.858 41.142-111.428 101.142t-40.572 128q0 79.428 53.714 146.858t146.572 106.572 202 39.142 202-39.142 146.572-106.572 53.714-146.858zM1024 374.858q0-68.572-40.572-128.286t-111.428-100.858q5.714-13.714 11.714-25.142t14.286-22 12.858-16.572 14.858-16.858 13.142-14.286q0.572-0.572 2.286-2.572t2.572-2.858 2.286-2.858 2-3.142l1.428-2.858t1.142-3.428 0.286-3.714-0.572-3.714q-1.714-8-7.428-12.572t-12.572-4q-28.572 4-49.142 9.142-88 22.858-158.858 73.142-51.428-9.142-100.572-9.142-154.858 0-269.714 75.428 33.142-2.286 50.286-2.286 92 0 176.572 25.714t150.858 73.714q71.428 52.572 109.714 121.142t38.286 145.142q0 44-13.142 86.858 73.714-40.572 116.572-101.714t42.858-131.428z" />
<glyph unicode="&#xe018;" d="M1024 448q0-99.428-68.572-183.714t-186.286-133.142-257.142-48.858q-40 0-82.858 4.572-113.142-100-262.858-138.286-28-8-65.142-12.572-9.714-1.142-17.428 5.142t-10 16.572v0.572q-1.714 2.286-0.286 6.858t1.142 5.714 2.572 5.428l3.428 5.142t4 4.858 4.572 5.142q4 4.572 17.714 19.714t19.714 21.714 17.714 22.572 18.572 29.142 15.428 33.714 14.858 43.428q-89.714 50.858-141.428 125.714t-51.714 160.572q0 74.286 40.572 142t109.142 116.858 163.428 78 198.858 28.858q139.428 0 257.142-48.858t186.286-133.142 68.572-183.714z" />
<glyph unicode="&#xe019;" d="M655.714 318.858q0 14.858-10.858 25.714l-103.428 103.428 103.428 103.428q10.858 10.858 10.858 25.714 0 15.428-10.858 26.286l-51.428 51.428q-10.858 10.858-26.286 10.858-14.858 0-25.714-10.858l-103.428-103.428-103.428 103.428q-10.858 10.858-25.714 10.858-15.428 0-26.286-10.858l-51.428-51.428q-10.858-10.858-10.858-26.286 0-14.858 10.858-25.714l103.428-103.428-103.428-103.428q-10.858-10.858-10.858-25.714 0-15.428 10.858-26.286l51.428-51.428q10.858-10.858 26.286-10.858 14.858 0 25.714 10.858l103.428 103.428 103.428-103.428q10.858-10.858 25.714-10.858 15.428 0 26.286 10.858l51.428 51.428q10.858 10.858 10.858 26.286zM876.856 448q0-119.428-58.858-220.286t-159.714-159.714-220.286-58.858-220.286 58.858-159.714 159.714-58.858 220.286 58.858 220.286 159.714 159.714 220.286 58.858 220.286-58.858 159.714-159.714 58.858-220.286z" horiz-adv-x="876" />
<glyph unicode="&#xe01a;" d="M732.856 540.572q0 16-10.286 26.286l-52 51.428q-10.858 10.858-25.714 10.858t-25.714-10.858l-233.142-232.572-129.142 129.142q-10.858 10.858-25.714 10.858t-25.714-10.858l-52-51.428q-10.286-10.286-10.286-26.286 0-15.428 10.286-25.714l206.858-206.858q10.858-10.858 25.714-10.858 15.428 0 26.286 10.858l310.286 310.286q10.286 10.286 10.286 25.714zM876.856 448q0-119.428-58.858-220.286t-159.714-159.714-220.286-58.858-220.286 58.858-159.714 159.714-58.858 220.286 58.858 220.286 159.714 159.714 220.286 58.858 220.286-58.858 159.714-159.714 58.858-220.286z" horiz-adv-x="876" />
<glyph unicode="&#xe01b;" d="M512 960c-282.77 0-512-229.23-512-512s229.23-512 512-512 512 229.23 512 512-229.23 512-512 512zM512 32c-229.75 0-416 186.25-416 416s186.25 416 416 416 416-186.25 416-416-186.25-416-416-416zM384 672l384-224-384-224z" />
<glyph unicode="&#xe01c;" d="M0 832v-768h1024v768h-1024zM192 128h-128v128h128v-128zM192 384h-128v128h128v-128zM192 640h-128v128h128v-128zM768 128h-512v640h512v-640zM960 128h-128v128h128v-128zM960 384h-128v128h128v-128zM960 640h-128v128h128v-128zM384 640v-384l256 192z" />
<glyph unicode="&#xe01d;" d="M286.704 68.198c-13.722-13.876-13.722-36.25 0-50.124s35.892-13.876 49.612 0l400.896 404.838c13.722 13.876 13.722 36.3 0 50.124l-400.896 404.89c-13.722 13.876-35.892 13.876-49.612 0s-13.722-36.25 0-50.124l365.568-379.802-365.568-379.802z" />
<glyph unicode="&#xe600;" d="M734.286 512q0 15.429-10.286 25.714l-258.857 258.857q-10.286 10.286-25.714 10.286t-25.714-10.286l-52-52q-10.286-10.286-10.286-25.714t10.286-25.714l108-108h-286.857q-14.857 0-25.714-10.857t-10.857-25.714v-73.143q0-14.857 10.857-25.714t25.714-10.857h286.857l-108-108q-10.857-10.857-10.857-25.714t10.857-25.714l52-52q10.286-10.286 25.714-10.286t25.714 10.286l258.857 258.857q10.286 10.286 10.286 25.714zM877.714 512q0-119.429-58.857-220.286t-159.714-159.714-220.286-58.857-220.286 58.857-159.714 159.714-58.857 220.286 58.857 220.286 159.714 159.714 220.286 58.857 220.286-58.857 159.714-159.714 58.857-220.286z" horiz-adv-x="878" />
<glyph unicode="&#xe601;" d="M950.857 475.429q-86.857 134.857-217.714 201.714 34.857-59.429 34.857-128.571 0-105.714-75.143-180.857t-180.857-75.143-180.857 75.143-75.143 180.857q0 69.143 34.857 128.571-130.857-66.857-217.714-201.714 76-117.143 190.571-186.571t248.286-69.429 248.286 69.429 190.571 186.571zM539.429 694.857q0 11.429-8 19.429t-19.429 8q-71.429 0-122.571-51.143t-51.143-122.571q0-11.429 8-19.429t19.429-8 19.429 8 8 19.429q0 49.143 34.857 84t84 34.857q11.429 0 19.429 8t8 19.429zM1024 475.429q0-19.429-11.429-39.429-80-131.429-215.143-210.571t-285.429-79.143-285.429 79.429-215.143 210.286q-11.429 20-11.429 39.429t11.429 39.429q80 130.857 215.143 210.286t285.429 79.429 285.429-79.429 215.143-210.286q11.429-20 11.429-39.429z" />
<glyph unicode="&#xe602;" d="M438.857 658.286q0 60.571-42.857 103.429t-103.429 42.857-103.429-42.857-42.857-103.429 42.857-103.429 103.429-42.857 103.429 42.857 42.857 103.429zM585.143 658.286q0-62.286-18.857-102.286l-208-442.286q-9.143-18.857-27.143-29.714t-38.571-10.857-38.571 10.857-26.571 29.714l-208.571 442.286q-18.857 40-18.857 102.286 0 121.143 85.714 206.857t206.857 85.714 206.857-85.714 85.714-206.857z" horiz-adv-x="585" />
<glyph unicode="&#xe603;" d="M438.857 950.857q119.429 0 220.286-58.857t159.714-159.714 58.857-220.286-58.857-220.286-159.714-159.714-220.286-58.857-220.286 58.857-159.714 159.714-58.857 220.286 58.857 220.286 159.714 159.714 220.286 58.857zM595.429 653.143q-1.143-0.571-5.429-5.429t-7.714-5.429q1.143 0 2.571 2.857t2.857 6.286 2 4q3.429 4 12.571 8.571 8 3.429 29.714 6.857 19.429 4.571 29.143-6.286-1.143 1.143 5.429 7.429t8.286 6.857q1.714 1.143 8.571 2.571t8.571 4.286l1.143 12.571q-6.857-0.571-10 4t-3.714 12q0-1.143-3.429-4.571 0 4-2.571 4.571t-6.571-0.571-5.143-0.571q-5.714 1.714-8.571 4.286t-4.571 9.429-2.286 8.571q-1.143 2.857-5.429 6t-5.429 6q-0.571 1.143-1.429 3.143t-1.714 3.714-2.286 3.143-3.143 1.429-4-2.857-4.286-5.714-2.571-2.857q-1.714 1.143-3.429 0.857t-2.571-0.571-2.571-1.714-2.857-2q-1.714-1.143-4.857-1.714t-4.857-1.143q8.571 2.857-0.571 6.286-5.714 2.286-9.143 1.714 5.143 2.286 4.286 6.857t-4.857 8h2.857q-0.571 2.286-4.857 4.857t-10 4.857-7.429 3.429q-4.571 2.857-19.429 5.429t-18.857 0.286q-2.857-3.429-2.571-6t2.286-8 2-7.143q0.571-3.429-3.143-7.429t-3.714-6.857q0-4 8-8.857t5.714-12.286q-1.714-4.571-9.143-9.143t-9.143-6.857q-2.857-4.571-0.857-10.571t6-9.429q1.143-1.143 0.857-2.286t-2-2.571-3.143-2.286-3.714-2l-1.714-1.143q-6.286-2.857-11.714 3.429t-7.714 14.857q-4 14.286-9.143 17.143-13.143 4.571-16.571-0.571-2.857 7.429-23.429 14.857-14.286 5.143-33.143 2.286 3.429 0.571 0 8.571-4 8.571-10.857 6.857 1.714 3.429 2.286 10t0.571 7.714q1.714 7.429 6.857 13.143 0.571 0.571 4 4.857t5.429 7.714 0.286 3.429q20-2.286 28.571 6.286 2.857 2.857 6.571 9.714t6 9.714q5.143 3.429 8 3.143t8.286-3.143 8.286-2.857q8-0.571 8.857 6.286t-4.286 11.429q6.857-0.571 1.714 9.714-2.857 4-4.571 5.143-6.857 2.286-15.429-2.857-4.571-2.286 1.143-4.571-0.571 0.571-5.429-6t-9.429-10-9.143 2.857q-0.571 0.571-3.143 7.714t-5.429 7.714q-4.571 0-9.143-8.571 1.714 4.571-6.286 8.571t-13.714 4.571q10.857 6.857-4.571 15.429-4 2.286-11.714 2.857t-11.143-2.286q-2.857-4-3.143-6.571t2.857-4.571 6-3.143 6.571-2.286 4.857-1.714q8-5.714 4.571-8-1.143-0.571-4.857-2t-6.571-2.571-3.429-2.286q-1.714-2.286 0-8t-1.143-8q-2.857 2.857-5.143 10t-4 9.429q4-5.143-14.286-3.429l-5.714 0.571q-2.286 0-9.143-1.143t-11.714-0.571-7.714 4.571q-2.286 4.571 0 11.429 0.571 2.286 2.286 1.143-2.286 1.714-6.286 5.429t-5.714 4.857q-26.286-8.571-53.714-23.429 3.429-0.571 6.857 0.571 2.857 1.143 7.429 3.714t5.714 3.143q19.429 8 24 4l2.857 2.857q8-9.143 11.429-14.286-4 2.286-17.143 0.571-11.429-3.429-12.571-6.857 4-6.857 2.857-10.286-2.286 1.714-6.571 5.714t-8.286 6.286-8.571 2.857q-9.143 0-12.571-0.571-83.429-45.714-134.286-126.857 4-4 6.857-4.571 2.286-0.571 2.857-5.143t1.429-6.286 6.571 1.714q5.143-4.571 1.714-10.857 0.571 0.571 25.143-15.429 10.857-9.714 12-12 1.714-6.286-5.714-10.286-0.571 1.143-5.143 5.143t-5.143 2.286q-1.714-2.857 0.286-10.571t6-7.143q-4 0-5.429-9.143t-1.429-20.286-0.571-13.429l1.143-0.571q-1.714-6.857 3.143-19.714t12.286-11.143q-7.429-1.714 11.429-24.571 3.429-4.571 4.571-5.143 1.714-1.143 6.857-4.286t8.571-5.714 5.714-6q2.286-2.857 5.714-12.857t8-13.429q-1.143-3.429 5.429-11.429t6-13.143q-0.571 0-1.429-0.571t-1.429-0.571q1.714-4 8.857-8t8.857-7.429q0.571-1.714 1.143-5.714t1.714-6.286 4.571-1.143q1.143 11.429-13.714 35.429-8.571 14.286-9.714 16.571-1.714 2.857-3.143 8.857t-2.571 8.286q1.143 0 3.429-0.857t4.857-2 4.286-2.286 1.143-1.714q-1.714-4 1.143-10t6.857-10.571 9.714-10.857 6.857-7.429q3.429-3.429 8-11.143t0-7.714q5.143 0 11.429-5.714t9.714-11.429q2.857-4.571 4.571-14.857t2.857-13.714q1.143-4 4.857-7.714t7.143-5.429l9.143-4.571t7.429-4q2.857-1.143 10.571-6t12.286-6.571q5.714-2.286 9.143-2.286t8.286 1.429 7.714 2q8.571 1.143 16.571-8.571t12-12q20.571-10.857 31.429-6.286-1.143-0.571 0.286-4.286t4.571-8.857 5.143-8.286 3.143-4.857q2.857-3.429 10.286-8.571t10.286-8.571q3.429 2.286 4 5.143-1.714-4.571 4-11.429t10.286-5.714q8 1.714 8 18.286-17.714-8.571-28 10.286 0 0.571-1.429 3.143t-2.286 4.857-1.429 4.857 0 4.286 2.857 1.714q5.143 0 5.714 2t-1.143 7.143-2.286 7.429q-0.571 4.571-6.286 11.429t-6.857 8.571q-2.857-5.143-9.143-4.571t-9.143 5.143q0-0.571-0.857-3.143t-0.857-3.714q-7.429 0-8.571 0.571 0.571 1.714 1.429 10t2 12.857q0.571 2.286 3.143 6.857t4.286 8.286 2.286 7.143-2.571 5.429-10 1.429q-10.857-0.571-14.857-11.429-0.571-1.714-1.714-6t-2.857-6.571-5.143-4q-4-1.714-13.714-1.143t-13.714 2.857q-7.429 4.571-12.857 16.571t-5.429 21.143q0 5.714 1.429 15.143t1.714 14.286-3.143 14q1.714 1.143 5.143 5.429t5.714 6q1.143 0.571 2.571 0.857t2.571 0 2.286 0.857 1.714 3.429q-0.571 0.571-2.286 1.714-1.714 1.714-2.286 1.714 4-1.714 16.286 0.857t15.714-0.857q8.571-6.286 12.571 1.143 0 0.571-1.429 5.429t-0.286 7.714q2.857-15.429 16.571-5.143 1.714-1.714 8.857-2.857t10-2.857q1.714-1.143 4-3.143t3.143-2.571 2.857 0.286 4.857 3.714q5.714-8 6.857-13.714 6.286-22.857 10.857-25.143 4-1.714 6.286-1.143t2.571 5.429 0 8-0.857 7.143l-0.571 4.571v10.286l-0.571 4.571q-8.571 1.714-10.571 6.857t0.857 10.571 8.571 10.571q0.571 0.571 4.571 2t8.857 3.714 7.143 4.571q12 10.857 8.571 20 4 0 6.286 5.143-0.571 0-2.857 1.714t-4.286 2.857-2.571 1.143q5.143 2.857 1.143 9.143 2.857 1.714 4.286 6.286t4.286 5.714q5.143-6.857 12-1.143 4 4.571 0.571 9.143 2.857 4 11.714 6t10.571 5.429q4-1.143 4.571 1.143t0.571 6.857 1.714 6.857q2.286 2.857 8.571 5.143t7.429 2.857l9.714 6.286q1.714 2.286 0 2.286 10.286-1.143 17.714 6.286 5.714 6.286-3.429 11.429 1.714 3.429-1.714 5.429t-8.571 3.143q1.714 0.571 6.571 0.286t6 0.857q8.571 5.714-4 9.143-9.714 2.857-24.571-6.857zM502.286 152q117.714 20.571 200.571 108-1.714 1.714-7.143 2.571t-7.143 2q-10.286 4-13.714 4.571 0.571 4-1.429 7.429t-4.571 5.143-7.143 4.571-6.286 4q-1.143 1.143-4 3.429t-4 3.143-4.286 2.571-4.857 1.143-5.714-0.571l-1.714-0.571q-1.714-0.571-3.143-1.429t-3.143-1.714-2.286-1.714 0-1.429q-12 9.714-20.571 12.571-2.857 0.571-6.286 3.143t-6 4-5.714 0.857-6.571-4q-2.857-2.857-3.429-8.571t-1.143-7.429q-4 2.857 0 10t1.143 10.571q-1.714 3.429-6 2.571t-6.857-2.571-6.571-4.857-5.143-3.714-4.857-3.143-4.857-4.286q-1.714-2.286-3.429-6.857t-2.857-6.286q-1.143 2.286-6.571 3.714t-5.429 3.143q1.143-5.714 2.286-20t2.857-21.714q4-17.714-6.857-27.429-15.429-14.286-16.571-22.857-2.286-12.571 6.857-14.857 0-4-4.571-11.714t-4-12.286q0-3.429 1.143-9.143z" horiz-adv-x="878" />
<glyph unicode="&#xe604;" d="M790.857 494.286l-758.857-421.714q-13.143-7.429-22.571-1.714t-9.429 20.571v841.143q0 14.857 9.429 20.571t22.571-1.714l758.857-421.714q13.143-7.429 13.143-17.714t-13.143-17.714z" horiz-adv-x="805" />
<glyph unicode="&#xe605;" d="M877.714 914.286v-804.571q0-14.857-10.857-25.714t-25.714-10.857h-292.571q-14.857 0-25.714 10.857t-10.857 25.714v804.571q0 14.857 10.857 25.714t25.714 10.857h292.571q14.857 0 25.714-10.857t10.857-25.714zM365.714 914.286v-804.571q0-14.857-10.857-25.714t-25.714-10.857h-292.571q-14.857 0-25.714 10.857t-10.857 25.714v804.571q0 14.857 10.857 25.714t25.714 10.857h292.571q14.857 0 25.714-10.857t10.857-25.714z" horiz-adv-x="878" />
<glyph unicode="&#xe606;" d="M438.857 822.857v-621.714q0-14.857-10.857-25.714t-25.714-10.857-25.714 10.857l-190.286 190.286h-149.714q-14.857 0-25.714 10.857t-10.857 25.714v219.429q0 14.857 10.857 25.714t25.714 10.857h149.714l190.286 190.286q10.857 10.857 25.714 10.857t25.714-10.857 10.857-25.714zM658.286 512q0-43.429-24.286-80.857t-64.286-53.429q-5.714-2.857-14.286-2.857-14.857 0-25.714 10.571t-10.857 26q0 12 6.857 20.286t16.571 14.286 19.429 13.143 16.571 20.286 6.857 32.571-6.857 32.571-16.571 20.286-19.429 13.143-16.571 14.286-6.857 20.286q0 15.429 10.857 26t25.714 10.571q8.571 0 14.286-2.857 40-15.429 64.286-53.143t24.286-81.143zM804.571 512q0-87.429-48.571-161.429t-128.571-107.714q-7.429-2.857-14.286-2.857-15.429 0-26.286 10.857t-10.857 25.714q0 22.286 22.286 33.714 32 16.571 43.429 25.143 42.286 30.857 66 77.429t23.714 99.143-23.714 99.143-66 77.429q-11.429 8.571-43.429 25.143-22.286 11.429-22.286 33.714 0 14.857 10.857 25.714t25.714 10.857q7.429 0 14.857-2.857 80-33.714 128.571-107.714t48.571-161.429zM950.857 512q0-131.429-72.571-241.429t-193.143-162q-7.429-2.857-14.857-2.857-14.857 0-25.714 10.857t-10.857 25.714q0 20.571 22.286 33.714 4 2.286 12.857 6t12.857 6q26.286 14.286 46.857 29.143 70.286 52 109.714 129.714t39.429 165.143-39.429 165.143-109.714 129.714q-20.571 14.857-46.857 29.143-4 2.286-12.857 6t-12.857 6q-22.286 13.143-22.286 33.714 0 14.857 10.857 25.714t25.714 10.857q7.429 0 14.857-2.857 120.571-52 193.143-162t72.571-241.429z" horiz-adv-x="951" />
<glyph unicode="&#xe607;" d="M877.714 914.286v-804.571q0-14.857-10.857-25.714t-25.714-10.857h-804.571q-14.857 0-25.714 10.857t-10.857 25.714v804.571q0 14.857 10.857 25.714t25.714 10.857h804.571q14.857 0 25.714-10.857t10.857-25.714z" horiz-adv-x="878" />
<glyph unicode="&#xe608;" d="M25.714 80.571q-10.857-10.857-18.286-7.429t-7.429 18.286v841.143q0 14.857 7.429 18.286t18.286-7.429l405.714-405.714q4.571-4.571 7.429-10.857v405.714q0 14.857 7.429 18.286t18.286-7.429l405.714-405.714q4.571-4.571 7.429-10.857v387.429q0 14.857 10.857 25.714t25.714 10.857h73.143q14.857 0 25.714-10.857t10.857-25.714v-804.571q0-14.857-10.857-25.714t-25.714-10.857h-73.143q-14.857 0-25.714 10.857t-10.857 25.714v387.429q-2.857-5.714-7.429-10.857l-405.714-405.714q-10.857-10.857-18.286-7.429t-7.429 18.286v405.714q-2.857-5.714-7.429-10.857z" />
<glyph unicode="&#xe609;" d="M998.286 943.429q10.857 10.857 18.286 7.429t7.429-18.286v-841.143q0-14.857-7.429-18.286t-18.286 7.429l-405.714 405.714q-5.143 5.143-7.429 10.857v-405.714q0-14.857-7.429-18.286t-18.286 7.429l-405.714 405.714q-5.143 5.143-7.429 10.857v-387.429q0-14.857-10.857-25.714t-25.714-10.857h-73.143q-14.857 0-25.714 10.857t-10.857 25.714v804.571q0 14.857 10.857 25.714t25.714 10.857h73.143q14.857 0 25.714-10.857t10.857-25.714v-387.429q2.286 6.286 7.429 10.857l405.714 405.714q10.857 10.857 18.286 7.429t7.429-18.286v-405.714q2.286 6.286 7.429 10.857z" />
<glyph unicode="&#xe60a;" d="M438.857 822.857v-621.714q0-14.857-10.857-25.714t-25.714-10.857-25.714 10.857l-190.286 190.286h-149.714q-14.857 0-25.714 10.857t-10.857 25.714v219.429q0 14.857 10.857 25.714t25.714 10.857h149.714l190.286 190.286q10.857 10.857 25.714 10.857t25.714-10.857 10.857-25.714zM658.286 512q0-43.429-24.286-80.857t-64.286-53.429q-5.714-2.857-14.286-2.857-14.857 0-25.714 10.571t-10.857 26q0 12 6.857 20.286t16.571 14.286 19.429 13.143 16.571 20.286 6.857 32.571-6.857 32.571-16.571 20.286-19.429 13.143-16.571 14.286-6.857 20.286q0 15.429 10.857 26t25.714 10.571q8.571 0 14.286-2.857 40-15.429 64.286-53.143t24.286-81.143z" horiz-adv-x="658" />
<glyph unicode="&#xe60b;" d="M438.857 822.857v-621.714q0-14.857-10.857-25.714t-25.714-10.857-25.714 10.857l-190.286 190.286h-149.714q-14.857 0-25.714 10.857t-10.857 25.714v219.429q0 14.857 10.857 25.714t25.714 10.857h149.714l190.286 190.286q10.857 10.857 25.714 10.857t25.714-10.857 10.857-25.714z" horiz-adv-x="439" />
<glyph unicode="&#xe60c;" d="M219.429 256q0-45.714-32-77.714t-77.714-32-77.714 32-32 77.714 32 77.714 77.714 32 77.714-32 32-77.714zM512 185.714q1.143-16-9.714-27.429-10.286-12-26.857-12h-77.143q-14.286 0-24.571 9.429t-11.429 23.714q-12.571 130.857-105.429 223.714t-223.714 105.429q-14.286 1.143-23.714 11.429t-9.429 24.571v77.143q0 16.571 12 26.857 9.714 9.714 24.571 9.714h2.857q91.429-7.429 174.857-46t148-103.714q65.143-64.571 103.714-148t46-174.857zM804.571 184.571q1.143-15.429-10.286-26.857-10.286-11.429-26.286-11.429h-81.714q-14.857 0-25.429 10t-11.143 24.286q-6.857 122.857-57.714 233.429t-132.286 192-192 132.286-233.429 58.286q-14.286 0.571-24.286 11.143t-10 24.857v81.714q0 16 11.429 26.286 10.286 10.286 25.143 10.286h1.714q149.714-7.429 286.571-68.571t243.143-168q106.857-106.286 168-243.143t68.571-286.571z" horiz-adv-x="805" />
<glyph unicode="&#xe60d;" d="M507.429 347.429l66.286 66.286-86.857 86.857-66.286-66.286v-32h54.857v-54.857h32zM758.857 758.857q-9.143 9.143-18.857-0.571l-200-200q-9.714-9.714-0.571-18.857t18.857 0.571l200 200q9.714 9.714 0.571 18.857zM804.571 419.429v-108.571q0-68-48.286-116.286t-116.286-48.286h-475.429q-68 0-116.286 48.286t-48.286 116.286v475.429q0 68 48.286 116.286t116.286 48.286h475.429q36 0 66.857-14.286 8.571-4 10.286-13.143 1.714-9.714-5.143-16.571l-28-28q-8-8-18.286-4.571-13.143 3.429-25.714 3.429h-475.429q-37.714 0-64.571-26.857t-26.857-64.571v-475.429q0-37.714 26.857-64.571t64.571-26.857h475.429q37.714 0 64.571 26.857t26.857 64.571v72q0 7.429 5.143 12.571l36.571 36.571q8.571 8.571 20 4t11.429-16.571zM749.714 841.143l164.571-164.571-384-384h-164.571v164.571zM1003.429 765.714l-52.571-52.571-164.571 164.571 52.571 52.571q16 16 38.857 16t38.857-16l86.857-86.857q16-16 16-38.857t-16-38.857z" />
<glyph unicode="&#xe60e;" d="M431.429 420.571q0-7.429-5.714-13.143l-189.714-189.714 82.286-82.286q10.857-10.857 10.857-25.714t-10.857-25.714-25.714-10.857h-256q-14.857 0-25.714 10.857t-10.857 25.714v256q0 14.857 10.857 25.714t25.714 10.857 25.714-10.857l82.286-82.286 189.714 189.714q5.714 5.714 13.143 5.714t13.143-5.714l65.143-65.143q5.714-5.714 5.714-13.143zM877.714 914.286v-256q0-14.857-10.857-25.714t-25.714-10.857-25.714 10.857l-82.286 82.286-189.714-189.714q-5.714-5.714-13.143-5.714t-13.143 5.714l-65.143 65.143q-5.714 5.714-5.714 13.143t5.714 13.143l189.714 189.714-82.286 82.286q-10.857 10.857-10.857 25.714t10.857 25.714 25.714 10.857h256q14.857 0 25.714-10.857t10.857-25.714z" horiz-adv-x="878" />
<glyph unicode="&#xe60f;" d="M1024 658.286q0-14.857-10.857-25.714l-292.571-292.571q-10.857-10.857-25.714-10.857t-25.714 10.857-10.857 25.714v146.286h-128q-56 0-100.286-3.429t-88-12.286-76-24.286-60.286-39.714-45.714-57.714-27.714-79.143-10-103.429q0-31.429 2.857-70.286 0-3.429 1.429-13.429t1.429-15.143q0-8.571-4.857-14.286t-13.429-5.714q-9.143 0-16 9.714-4 5.143-7.429 12.571t-7.714 17.143-6 13.714q-72.571 162.857-72.571 257.714 0 113.714 30.286 190.286 92.571 230.286 500 230.286h128v146.286q0 14.857 10.857 25.714t25.714 10.857 25.714-10.857l292.571-292.571q10.857-10.857 10.857-25.714z" />
<glyph unicode="&#xe610;" d="M1024 384q0-94.857-72.571-257.714-1.714-4-6-13.714t-7.714-17.143-7.429-12.571q-6.857-9.714-16-9.714-8.571 0-13.429 5.714t-4.857 14.286q0 5.143 1.429 15.143t1.429 13.429q2.857 38.857 2.857 70.286 0 57.714-10 103.429t-27.714 79.143-45.714 57.714-60.286 39.714-76 24.286-88 12.286-100.286 3.429h-128v-146.286q0-14.857-10.857-25.714t-25.714-10.857-25.714 10.857l-292.571 292.571q-10.857 10.857-10.857 25.714t10.857 25.714l292.571 292.571q10.857 10.857 25.714 10.857t25.714-10.857 10.857-25.714v-146.286h128q407.429 0 500-230.286 30.286-76.571 30.286-190.286z" />
<glyph unicode="&#xe611;" d="M877.714 877.714v-256q0-14.857-10.857-25.714t-25.714-10.857h-256q-24 0-33.714 22.857-9.714 22.286 8 39.429l78.857 78.857q-84.571 78.286-199.429 78.286-59.429 0-113.429-23.143t-93.429-62.571-62.571-93.429-23.143-113.429 23.143-113.429 62.571-93.429 93.429-62.571 113.429-23.143q68 0 128.571 29.714t102.286 84q4 5.714 13.143 6.857 8 0 14.286-5.143l78.286-78.857q5.143-4.571 5.429-11.714t-4.286-12.857q-62.286-75.429-150.857-116.857t-186.857-41.429q-89.143 0-170.286 34.857t-140 93.714-93.714 140-34.857 170.286 34.857 170.286 93.714 140 140 93.714 170.286 34.857q84 0 162.571-31.714t139.714-89.429l74.286 73.714q16.571 17.714 40 8 22.286-9.714 22.286-33.714z" horiz-adv-x="878" />
<glyph unicode="&#xe612;" d="M64 384h384v-384l-138.26 138.26-202-202-107.48 107.48 202 202zM821.74 245.74l202-202-107.48-107.48-202 202-138.26-138.26v384h384zM960 512h-384v384l138.26-138.26 202 202 107.48-107.48-202-202zM309.74 757.74l138.26 138.26v-384h-384l138.26 138.26-202 202 107.48 107.48z" />
<glyph unicode="&#xe613;" d="M438.857 475.429v-219.429q0-45.714-32-77.714t-77.714-32h-219.429q-45.714 0-77.714 32t-32 77.714v402.286q0 59.429 23.143 113.429t62.571 93.429 93.429 62.571 113.429 23.143h36.571q14.857 0 25.714-10.857t10.857-25.714v-73.143q0-14.857-10.857-25.714t-25.714-10.857h-36.571q-60.571 0-103.429-42.857t-42.857-103.429v-18.286q0-22.857 16-38.857t38.857-16h128q45.714 0 77.714-32t32-77.714zM950.857 475.429v-219.429q0-45.714-32-77.714t-77.714-32h-219.429q-45.714 0-77.714 32t-32 77.714v402.286q0 59.429 23.143 113.429t62.571 93.429 93.429 62.571 113.429 23.143h36.571q14.857 0 25.714-10.857t10.857-25.714v-73.143q0-14.857-10.857-25.714t-25.714-10.857h-36.571q-60.571 0-103.429-42.857t-42.857-103.429v-18.286q0-22.857 16-38.857t38.857-16h128q45.714 0 77.714-32t32-77.714z" horiz-adv-x="951" />
<glyph unicode="&#xe614;" d="M438.857 841.143v-402.286q0-59.429-23.143-113.429t-62.571-93.429-93.429-62.571-113.429-23.143h-36.571q-14.857 0-25.714 10.857t-10.857 25.714v73.143q0 14.857 10.857 25.714t25.714 10.857h36.571q60.571 0 103.429 42.857t42.857 103.429v18.286q0 22.857-16 38.857t-38.857 16h-128q-45.714 0-77.714 32t-32 77.714v219.429q0 45.714 32 77.714t77.714 32h219.429q45.714 0 77.714-32t32-77.714zM950.857 841.143v-402.286q0-59.429-23.143-113.429t-62.571-93.429-93.429-62.571-113.429-23.143h-36.571q-14.857 0-25.714 10.857t-10.857 25.714v73.143q0 14.857 10.857 25.714t25.714 10.857h36.571q60.571 0 103.429 42.857t42.857 103.429v18.286q0 22.857-16 38.857t-38.857 16h-128q-45.714 0-77.714 32t-32 77.714v219.429q0 45.714 32 77.714t77.714 32h219.429q45.714 0 77.714-32t32-77.714z" horiz-adv-x="951" />
<glyph unicode="&#xf00d;" d="M741.714 204.572q0-22.858-16-38.858l-77.714-77.714q-16-16-38.858-16t-38.858 16l-168 168-168-168q-16-16-38.858-16t-38.858 16l-77.714 77.714q-16 16-16 38.858t16 38.858l168 168-168 168q-16 16-16 38.858t16 38.858l77.714 77.714q16 16 38.858 16t38.858-16l168-168 168 168q16 16 38.858 16t38.858-16l77.714-77.714q16-16 16-38.858t-16-38.858l-168-168 168-168q16-16 16-38.858z" horiz-adv-x="804" />
<glyph unicode="&#xf0c9;" d="M877.714 192v-73.142q0-14.858-10.858-25.714t-25.714-10.858h-804.572q-14.858 0-25.714 10.858t-10.858 25.714v73.142q0 14.858 10.858 25.714t25.714 10.858h804.572q14.858 0 25.714-10.858t10.858-25.714zM877.714 484.572v-73.142q0-14.858-10.858-25.714t-25.714-10.858h-804.572q-14.858 0-25.714 10.858t-10.858 25.714v73.142q0 14.858 10.858 25.714t25.714 10.858h804.572q14.858 0 25.714-10.858t10.858-25.714zM877.714 777.142v-73.142q0-14.858-10.858-25.714t-25.714-10.858h-804.572q-14.858 0-25.714 10.858t-10.858 25.714v73.142q0 14.858 10.858 25.714t25.714 10.858h804.572q14.858 0 25.714-10.858t10.858-25.714z" horiz-adv-x="876" />
</font>
</defs>
</svg>
